Results
version=1
nRows=24
nColumns=24
inDegrees=yes
endheader
time	pelvis_tilt	pelvis_list	pelvis_rotation	pelvis_tx	pelvis_ty	pelvis_tz	hip_flexion_r	hip_adduction_r	hip_rotation_r	knee_angle_r	ankle_angle_r	subtalar_angle_r	mtp_angle_r	hip_flexion_l	hip_adduction_l	hip_rotation_l	knee_angle_l	ankle_angle_l	subtalar_angle_l	mtp_angle_l	lumbar_extension	lumbar_bending	lumbar_rotation
      0.72900000	     -3.07963314	      6.30130180	     13.85939754	      0.07294093	      0.97246792	      0.27428841	     30.01694685	    -11.78647465	     -8.99731923	     -1.75957581	      6.02861012	     -8.39123381	     11.42261859	    -22.02612001	      5.15341907	     11.55639855	     -2.03113025	      6.02592510	     -6.12191494	     12.35399568	     -2.38337332	     -8.02495107	     -4.21787661
      0.73316667	     -3.07223711	      6.25429914	     13.96749823	      0.07925714	      0.97190007	      0.27452671	     29.99485139	    -11.77946775	     -8.91870953	     -2.15356943	      6.09915056	     -8.50836476	     11.40670973	    -22.21329611	      4.97230208	     11.58009122	     -2.34313489	      5.83877576	     -6.10843618	     12.37443906	     -2.33930575	     -7.95198920	     -4.23448057
      0.73733333	     -3.04943790	      6.20457853	     14.04846336	      0.08564397	      0.97136820	      0.27481689	     29.94810355	    -11.74497616	     -8.75851481	     -2.56428265	      6.14032708	     -8.74038727	     11.37031722	    -22.41956851	      4.79212159	     11.59171597	     -2.64569405	      5.58966294	     -6.12379480	     12.44276245	     -2.28598203	     -7.85883175	     -4.30192968
      0.74150000	     -3.03276285	      6.12803233	     14.12263804	      0.09207996	      0.97086568	      0.27514095	     29.90171751	    -11.67218847	     -8.58559096	     -2.99000619	      6.00532358	     -9.10299721	     11.29789339	    -22.59999099	      4.59095963	     11.61295961	     -2.97515065	      5.34528350	     -6.20537197	     12.63772902	     -2.24196266	     -7.75207036	     -4.37531712
      0.74566667	     -3.02101849	      6.04076407	     14.19781870	      0.09857894	      0.97039389	      0.27546576	     29.88789390	    -11.59357590	     -8.54128884	     -3.51101282	      5.94069605	     -9.22705049	     11.28820176	    -22.75368219	      4.38070500	     11.59887941	     -3.34156238	      5.08667054	     -6.21362576	     12.67266231	     -2.18174420	     -7.64163591	     -4.38206375
      0.74983333	     -2.99802992	      5.92510030	     14.24191574	      0.10516970	      0.96995713	      0.27584656	     29.83866470	    -11.45519106	     -8.38628362	     -3.99368136	      5.74895697	     -9.56882723	     10.85087648	    -22.91838429	      4.14839685	     11.55853534	     -3.68752289	      4.71763399	     -6.33441946	     16.41184110	     -2.09212451	     -7.47343407	     -4.36449874
      0.75400000	     -2.98435482	      5.81923618	     14.28283622	      0.11177538	      0.96954371	      0.27624876	     29.84013983	    -11.33143303	     -8.35408702	     -4.58253424	      5.56488642	     -9.68735385	     10.85271993	    -23.04777459	      3.93356373	     11.49988986	     -4.09436959	      4.41062415	     -6.35368643	     16.41621575	     -2.02116853	     -7.35199830	     -4.39154374
      0.75816667	     -2.98559994	      5.67424662	     14.29401434	      0.11848634	      0.96914227	      0.27669100	     29.82825419	    -11.14240734	     -8.20024465	     -5.10847966	      5.22043374	    -10.06562422	     10.88634272	    -23.15377340	      3.69652457	     11.41630737	     -4.49853658	      4.04402263	     -6.41272123	     16.49145524	     -1.87417250	     -7.15601654	     -4.43658082
      0.76233333	     -2.97641555	      5.52000829	     14.29639727	      0.12523701	      0.96878827	      0.27716230	     29.82782290	    -10.93895831	     -8.12577003	     -5.69355787	      4.87865190	    -10.31508782	     10.94063348	    -23.25240044	      3.45223918	     11.31673750	     -4.93300063	      3.66020693	     -6.47479357	     16.61357435	     -1.75080119	     -6.96339269	     -4.42452832
      0.76650000	     -2.95674171	      5.36886084	     14.28863734	      0.13202079	      0.96849492	      0.27763886	     29.83027367	    -10.73427809	     -8.11055419	     -6.31886046	      4.53969504	    -10.41753623	     10.96256613	    -23.34343216	      3.21595894	     11.19000399	     -5.40033300	      3.21941033	     -6.51981212	     16.66445954	     -1.62995828	     -6.76888541	     -4.42580632
      0.77066667	     -2.95574206	      5.17733574	     14.25952895	      0.13887466	      0.96820500	      0.27816576	     29.85272076	    -10.47550242	     -8.05417624	     -6.93550631	      4.11502467	    -10.60446191	     11.00516081	    -23.39799290	      2.95344084	     11.04889396	     -5.88230514	      2.76265573	     -6.58265490	     16.76371636	     -1.49237213	     -6.53966320	     -4.40715168
      0.77483333	     -2.89359716	      4.97444583	     14.21648533	      0.14576162	      0.96804334	      0.27872334	     29.80061494	    -10.18235224	     -8.01476915	     -7.53063025	      3.58346269	    -10.93000177	     12.54461930	    -23.47976063	      2.66762948	     10.79195782	     -6.42296026	      2.30280543	     -6.55303330	     20.30979118	     -1.39734316	     -6.28037980	     -4.30150296
      0.77900000	     -2.91007225	      4.79034510	     14.14493816	      0.15267111	      0.96779797	      0.27931022	     29.88097472	     -9.91627498	     -7.96488874	     -8.23082272	      3.18341010	    -10.98990048	     12.54397869	    -23.48327379	      2.44256569	     10.61567563	     -6.96877831	      1.75728810	     -6.66933694	     20.33504590	     -1.21615636	     -6.05910111	     -4.31650499
      0.78316667	     -2.92250021	      4.57884301	     14.06881219	      0.15962076	      0.96760888	      0.27991603	     29.94632873	     -9.61399304	     -7.90044704	     -8.90775138	      2.70383559	    -11.20265746	     12.56481155	    -23.45838218	      2.19438467	     10.41145149	     -7.56712685	      1.23160777	     -6.76908043	     20.45404244	     -1.01811593	     -5.80992843	     -4.24663814
      0.78733333	     -2.88958453	      4.37259167	     13.96867532	      0.16658019	      0.96752499	      0.28054094	     29.97883321	     -9.30384028	     -7.87430063	     -9.61863512	      2.26691253	    -11.21779692	     12.57789578	    -23.46798947	      1.95040558	     10.16793549	     -8.18323791	      0.62890925	     -6.83215465	     20.51356882	     -0.88833320	     -5.55150106	     -4.22920993
      0.79150000	     -2.88730371	      4.13757945	     13.85132920	      0.17358543	      0.96743141	      0.28120350	     30.04509133	     -8.95577626	     -7.79765728	    -10.32579660	      1.80177561	    -11.39997847	     12.63790127	    -23.40392341	      1.69490248	      9.85016268	     -8.87294959	      0.07171476	     -6.84001140	     20.75093718	     -0.68905437	     -5.26348842	     -4.09658358
      0.79566667	     -2.84006461	      3.92826523	     13.72151886	      0.18055819	      0.96745488	      0.28187815	     30.07881385	     -8.62676689	     -7.75400100	    -11.07553808	      1.40185431	    -11.36651164	     12.66287590	    -23.38185057	      1.46179251	      9.56186288	     -9.56885197	     -0.60292513	     -6.89531086	     20.84940738	     -0.58138428	     -4.99679623	     -4.08531911
      0.79983333	     -2.83670131	      3.71085118	     13.57670461	      0.18753639	      0.96745394	      0.28261364	     30.15788365	     -8.28155597	     -7.64142233	    -11.81621190	      0.96192865	    -11.51000825	     12.81635379	    -23.24757048	      1.23341510	      9.13213453	    -10.39029436	     -1.20467697	     -6.73979879	     21.47529066	     -0.39704079	     -4.74374598	     -3.87058390
      0.80400000	     -2.76656154	      3.48000098	     13.41440986	      0.19453289	      0.96758775	      0.28331034	     30.18099750	     -7.91550585	     -7.59425541	    -12.60012191	      0.66583497	    -11.43170020	     12.84514072	    -23.20675833	      0.99348223	      8.81628786	    -11.15499310	     -1.92611379	     -6.85911206	     21.59515799	     -0.30067035	     -4.42628076	     -3.90419846
      0.80816667	     -2.71132958	      3.26733884	     13.24605935	      0.20150736	      0.96775085	      0.28403253	     30.21726237	     -7.56459916	     -7.51304418	    -13.38760746	      0.37538162	    -11.38833137	     12.87402159	    -23.10742889	      0.77778789	      8.44652088	    -12.00299086	     -2.65963598	     -6.90136733	     21.72577691	     -0.18051316	     -4.14135386	     -3.87759178
      0.81233333	     -2.70804844	      3.04016469	     13.07106258	      0.20845667	      0.96786041	      0.28481358	     30.31620621	     -7.19980971	     -7.39327080	    -14.18714099	      0.12687456	    -11.41216643	     12.97288507	    -22.87391395	      0.55178878	      7.92491932	    -13.00056234	     -3.26055759	     -6.68735366	     22.23372449	      0.00723221	     -3.86773892	     -3.68254052
      0.81650000	     -2.60218501	      2.85301003	     12.88874145	      0.21535496	      0.96820011	      0.28555865	     30.29013248	     -6.85678210	     -7.28983372	    -14.97277215	     -0.09780631	    -11.34945281	     12.99532568	    -22.78036988	      0.35783765	      7.55725070	    -13.92533190	     -4.09564649	     -6.77036283	     22.35499000	      0.04803981	     -3.59948246	     -3.70701272
      0.82066667	     -2.54265790	      2.62839876	     12.71222955	      0.22223568	      0.96849841	      0.28635949	     30.30047844	     -6.47697012	     -7.15829047	    -15.72587504	     -0.33230821	    -11.37703781	     13.82190317	    -22.55212415	      0.11640132	      7.02960067	    -14.98917525	     -4.84305612	     -6.65992429	     28.24214960	      0.13740683	     -3.31259970	     -3.63517541
      0.82483333	     -2.47685411	      2.45016026	     12.52577345	      0.22904865	      0.96884508	      0.28716246	     30.31642004	     -6.14162566	     -7.02103196	    -16.52600768	     -0.40807078	    -11.29009365	     13.80809554	    -22.31821612	     -0.06759416	      6.56774960	    -16.09068413	     -5.60058042	     -6.58588170	     28.25623141	      0.21136314	     -3.07278110	     -3.58547519
